<svg xmlns="http://www.w3.org/2000/svg" version="1.1" xmlns:xlink="http://www.w3.org/1999/xlink" xmlns:svgjs="http://svgjs.dev/svgjs" width="100%" height="100%" viewBox="0 0 1000 600"><rect width="1000" height="600" x="0" y="0" fill="#1e1e1e"/><g><rect width="333.3333333333333" height="333.3333333333333" rx="13.333333333333334" ry="13.333333333333334" y="286.86503903785604" fill="#20b2aa" transform="matrix(0.4723347301442305,0,0,0.4723347301442305,0,85.78121089569339)" x="264.6427001953125"/><path d="M423.8197711994743 528.5317083056864L423.8197711994743 528.5317083056864Q416.33017359976304 528.5317083056864 406.046837212858 527.9075751723772Q395.7932214513486 527.2537214136722 386.57982757868797 525.975734521658L386.57982757868797 525.975734521658L374.39437116645945 388.16119456189256Q381.0220706296959 386.02130953340367 391.1865245150183 383.8814245049148Q401.35097840034064 381.7415394764258 412.91230167925994 380.13662570505915Q424.4439043327835 378.53171193369246 434.9352850974584 378.53171193369246L434.9352850974584 378.53171193369246Q446.2885639986079 378.53171193369246 457.52296039817475 380.87964133995115Q468.7573567977415 383.2275707462098 477.73298566723673 388.8150483205975L477.73298566723673 388.8150483205975Q479.6648263179559 394.5808496473593 480.5267244544306 399.8116797169989Q481.3886225909053 405.0722304120342 481.3886225909053 409.7680892245515L481.3886225909053 409.7680892245515Q481.3886225909053 421.7455012590103 476.12807189587005 430.8400126300882Q470.89724182623047 439.9345240011661 462.12965733450505 446.5919440897983L462.12965733450505 446.5919440897983Q474.7312025022731 456.4294710957682 481.47778446709236 468.40688313022696Q488.22436643191156 480.3842951646858 488.22436643191156 490.2218221706557L488.22436643191156 490.2218221706557Q488.22436643191156 500.5051585575607 481.9235938480275 509.1835811730991Q475.59310063874784 517.8322831632419 461.4758035758001 523.1819957344642Q447.3585065128524 528.5317083056864 423.8197711994743 528.5317083056864ZM421.67988617098536 394.9969384028988L415.46827546328836 453.63573230857435Q430.44747066271077 447.66188660404276 438.59092202112697 437.3785502171377Q446.70465275414745 427.09521383023264 446.70465275414745 417.2576868242627L446.70465275414745 417.2576868242627Q446.70465275414745 410.83803173879596 443.82175209076655 403.5564785168545Q440.93885142738566 396.30464592030876 435.3810944783936 392.4409646188704L435.3810944783936 392.4409646188704Q432.5873556911997 392.4409646188704 429.0506012691138 393.1839802537624Q425.51384684702805 393.92699588865435 421.67988617098536 394.9969384028988L421.67988617098536 394.9969384028988ZM430.23942628494103 513.3444687284942L430.23942628494103 513.3444687284942Q431.9335019324948 513.3444687284942 435.14332947522814 513.2255862269116Q438.3531570179615 513.1364243507245 441.5629845606949 512.809497471372Q444.77281210342824 512.4825705920196 446.0805196208382 512.0664818364801L446.0805196208382 512.0664818364801Q448.6364934048666 506.9248136430275 451.10330531270796 498.6922004084243Q453.5701172205494 490.4595871738211 453.5701172205494 481.03814892339074L453.5701172205494 481.03814892339074Q453.5701172205494 474.4104494601542 451.9652034491827 467.9907943746875Q450.360289677816 461.5711392892207 446.49660837637765 455.56757295929344L446.49660837637765 455.56757295929344Q439.2150551544362 458.9854448797966 430.98244191983304 461.452256787638Q422.74982868522983 463.9190686954794 414.19028857127415 465.85090934619853L414.19028857127415 465.85090934619853L409.4647091333611 510.13464118576087Q414.8144217045834 511.6206724555448 420.0749723996187 512.4825705920196Q425.30580246925825 513.3444687284942 430.23942628494103 513.3444687284942Z " fill="#ffffff" transform="matrix(0.4723347301442305,0,0,0.4723347301442305,0,85.78121089569339)"/><path d="M768.0465422746406 523.2808589409248L749.8511105279771 526.3134308987021L705.9630552501451 426.6316674717644L704.7556423410301 426.6316674717644L701.5265147933969 523.2808589409248L681.3093684082152 524.2917162601839L690.8001954612588 391.8694074372436L739.7425373353863 389.8476927987254L760.1562393104239 486.07569371819454L783.7990688330947 388.83683547946634L832.7414107072221 391.8694074372436L838.8065546227767 523.2808589409248L820.6111228761131 526.3134308987021L791.6893717973115 418.76944387752707L790.0888477084846 418.76944387752707L768.0465422746406 523.2808589409248ZM926.13339525877 523.2808589409248L907.9379635121064 526.3134308987021L858.0128436886993 394.2842332554736L904.3157247847614 388.83683547946634L920.6859974827627 490.3156785850868L922.5111565314248 490.3156785850868L951.8260187899384 388.83683547946634L970.021450536602 393.69456648590585L926.13339525877 523.2808589409248ZM1027.64031773437 524.0951606703279L1007.4231713491881 526.1168753088461L995.882550287647 395.91283671427993Q1002.1442497930574 393.89112207576176 1011.7473943260187 391.7570899573259Q1021.3505388589799 389.6511372088695 1032.8911599205212 388.2190893399191Q1044.403701612083 386.81512084094817 1056.14087826348 386.81512084094817L1056.14087826348 386.81512084094817Q1067.456864365186 386.81512084094817 1078.2674218072625 389.03339106932225Q1089.0779792493388 391.2516612976964 1097.5860283531028 396.5305828538271L1097.5860283531028 396.5305828538271Q1101.2082670804477 407.42537840584174 1101.2082670804477 417.33739600857666L1101.2082670804477 417.33739600857666Q1101.2082670804477 433.707668706578 1091.8297575073218 445.95027401760467Q1082.4231685642164 458.1928793286314 1066.839118225639 466.36397599264234Q1051.2831472570406 474.56315202663274 1032.4699693708299 478.803136893525L1032.4699693708299 478.803136893525L1027.64031773437 524.0951606703279ZM1040.5568279249026 401.3602344902872L1033.9020172397804 465.0442456036096Q1047.6328291597163 457.57513318908417 1054.9334653543651 445.95027401760467Q1062.2060221790348 434.3254148461252 1062.2060221790348 423.2059843342753L1062.2060221790348 423.2059843342753Q1062.2060221790348 416.12998309946164 1059.0611327413399 409.9525217039895Q1055.9443226736244 403.8031396784967 1049.4579882083785 399.9562659913163L1049.4579882083785 399.9562659913163Q1047.4362735698603 399.9562659913163 1045.1056858615684 400.34937717102815Q1042.8031775232562 400.77056772071944 1040.5568279249026 401.3602344902872L1040.5568279249026 401.3602344902872ZM1130.3265737491054 497.1951242300445L1123.4471281041476 526.3134308987021L1103.229981718966 523.2808589409248L1141.0528930812434 388.83683547946634L1189.9671555853915 391.8694074372436L1216.249445886128 523.2808589409248L1198.054014139464 526.3134308987021L1184.0985672596928 492.75858377329627L1130.3265737491054 497.1951242300445ZM1133.9768918464297 481.6391532614463L1179.6620268029446 482.0322644411582L1151.5545774535462 414.3048240507994L1149.9540533647191 414.3048240507994L1133.9768918464297 481.6391532614463ZM1279.93345699945 524.0951606703279L1257.6945959757502 526.1168753088461L1246.1820542841883 391.8694074372436L1294.2820150589332 388.83683547946634L1279.93345699945 524.0951606703279ZM1440.6597707616447 528.5317011270762L1440.6597707616447 528.5317011270762Q1433.5837695268312 528.5317011270762 1423.8963868839319 527.9420343575083Q1414.1809248710524 527.3242882179611 1405.4763201774326 526.1168753088461L1405.4763201774326 526.1168753088461L1393.963778485871 395.91283671427993Q1400.2254779912814 393.89112207576176 1409.8286225242427 391.8694074372436Q1419.431767057204 389.8476927987254 1430.3546419791978 388.3314068198368Q1441.277516901192 386.81512084094817 1451.189534503927 386.81512084094817L1451.189534503927 386.81512084094817Q1461.8877744660856 386.81512084094817 1472.501776318306 389.03339106932225Q1483.1157781705265 391.2516612976964 1491.6238272742903 396.5305828538271L1491.6238272742903 396.5305828538271Q1493.4209069529732 401.9779806298344 1494.2352086823762 406.9199497462122Q1495.0495104117795 411.8899982325694 1495.0495104117795 416.3265386893176L1495.0495104117795 416.3265386893176Q1495.0495104117795 427.64252479102345 1490.107541295402 436.2348120047257Q1485.1374928090445 444.8270992184279 1476.854078665116 451.11687809381783L1476.854078665116 451.11687809381783Q1488.787810906369 460.4111495570055 1495.1618278916972 471.7271356587114Q1501.5077655070459 483.0431217604173 1501.5077655070459 492.337393223605L1501.5077655070459 492.337393223605Q1501.5077655070459 502.052855236484 1495.554939071409 510.25203127047433Q1489.6021126357723 518.4231279344854 1476.2363325255687 523.4774145307807Q1462.8986317853446 528.5317011270762 1440.6597707616447 528.5317011270762ZM1438.6380561231267 402.37109180954633L1432.769467797428 457.77168877894013Q1446.9214702670552 452.1277354130769 1454.6152176414162 442.4122734001979Q1462.3089650157767 432.6968113873189 1462.3089650157767 423.4025399241312L1462.3089650157767 423.4025399241312Q1462.3089650157767 417.33739600857666 1459.5571867577937 410.45795036361903Q1456.8334878697901 403.6065840886408 1451.582645683639 399.9562659913163L1451.582645683639 399.9562659913163Q1448.9431849055734 399.9562659913163 1445.629819248002 400.65825024080175Q1442.2883742204508 401.3602344902872 1438.6380561231267 402.37109180954633L1438.6380561231267 402.37109180954633ZM1446.7249146771994 514.183143067593L1446.7249146771994 514.183143067593Q1448.3535181360057 514.183143067593 1451.386090093783 514.0708255876754Q1454.4186620515602 513.9865874777371 1457.4512340093374 513.6777144079634Q1460.4838059671147 513.3688413381899 1461.6912188762296 512.975730158478L1461.6912188762296 512.975730158478Q1464.1060446944598 508.11799915203846 1466.4366324027515 500.3400136677394Q1468.7672201110431 492.56202818344036 1468.7672201110431 483.6608678999645L1468.7672201110431 483.6608678999645Q1468.7672201110431 477.399168394554 1467.2509341321547 471.33402447899954Q1465.7346481532659 465.268880563445 1462.0843300559416 459.59684782760235L1462.0843300559416 459.59684782760235Q1455.2329637809632 462.82597537523554 1447.4268989266848 465.1565630835273Q1439.6489134423857 467.4871507918191 1431.562054888313 469.31230984048136L1431.562054888313 469.31230984048136L1427.1255144315649 511.15057110981576Q1432.1798010278603 512.5545396087867 1437.1217701442379 513.3688413381899Q1442.091818630595 514.183143067593 1446.7249146771994 514.183143067593ZM1569.8529520369518 528.1385899473643L1569.8529520369518 528.1385899473643Q1555.5043939774687 528.1385899473643 1545.480058894816 524.7971449198134Q1535.4838031821428 521.4556998922626 1529.2221036767323 516.4014132959671L1529.2221036767323 516.4014132959671Q1527.5935002179262 508.3145547418944 1526.8915159684407 500.7331248474513Q1526.189531718955 493.15169495300813 1526.189531718955 486.07569371819454L1526.189531718955 486.07569371819454Q1526.189531718955 471.9236912485673 1530.3171991059298 459.7934034174583Q1534.472945862884 447.66311558634925 1540.6504072583562 438.2565266432439Q1546.799789283849 428.8780170701179 1553.2861237490947 422.7005556746457Q1559.744378844361 416.5230942791735 1564.1809193011093 414.3048240507994L1564.1809193011093 414.3048240507994Q1573.2786351744412 418.96599946738297 1582.179795457917 425.6208101525053Q1591.0809557413927 432.30370020760705 1598.4658300459798 441.20486049108285Q1605.850704350567 450.1060207745587 1610.2872448073153 461.22545128640866Q1614.7237852640637 472.3448817982586 1614.7237852640637 486.07569371819454L1614.7237852640637 486.07569371819454Q1614.7237852640637 500.0311405979658 1610.9049909468627 509.32541206115354Q1607.0581172596821 518.6196835243412 1597.3426552468031 523.3931764208425Q1587.6552726039035 528.1385899473643 1569.8529520369518 528.1385899473643ZM1558.9300771149578 510.5328249702685L1558.9300771149578 510.5328249702685Q1566.6238244893188 510.5328249702685 1574.4018099736177 509.4377295410712Q1582.179795457917 508.3145547418944 1588.0483837836155 506.29284010337625L1588.0483837836155 506.29284010337625Q1589.6769872424218 499.83458500810985 1590.4632096018456 493.3482505428641Q1591.2775113312487 486.8899954475977 1591.2775113312487 480.62829594218726L1591.2775113312487 480.62829594218726Q1591.2775113312487 461.4220068762646 1583.1906527771757 445.44484535797517L1583.1906527771757 445.44484535797517Q1571.87466667547 451.31343368367374 1563.1700619818503 461.7308799460382Q1554.4935366582097 472.12024683842327 1549.5234881718525 484.5594077393059Q1544.5815190554745 496.9985686401885 1544.5815190554745 509.32541206115354L1544.5815190554745 509.32541206115354Q1551.0397741507413 510.5328249702685 1558.9300771149578 510.5328249702685ZM1678.6324313372213 528.1385899473643L1678.6324313372213 528.1385899473643Q1664.2557939077587 528.1385899473643 1654.2595381950855 524.7971449198134Q1644.2632824824123 521.4556998922626 1637.9735036070224 516.4014132959671L1637.9735036070224 516.4014132959671Q1636.3729795181957 508.3145547418944 1635.6709952687102 500.7331248474513Q1634.9409316492452 493.15169495300813 1634.9409316492452 486.07569371819454L1634.9409316492452 486.07569371819454Q1634.9409316492452 471.9236912485673 1639.0966784061993 459.7934034174583Q1643.252425163153 447.66311558634925 1649.401807188646 438.2565266432439Q1655.5792685841184 428.8780170701179 1662.0375236793845 422.7005556746457Q1668.5238581446304 416.5230942791735 1672.9603986013785 414.3048240507994L1672.9603986013785 414.3048240507994Q1682.0581144747105 418.96599946738297 1690.9592747581862 425.6208101525053Q1699.8604350416622 432.30370020760705 1707.2172299762697 441.20486049108285Q1714.602104280857 450.1060207745587 1719.0667241075848 461.22545128640866Q1723.5032645643332 472.3448817982586 1723.5032645643332 486.07569371819454L1723.5032645643332 486.07569371819454Q1723.5032645643332 500.0311405979658 1719.6563908771527 509.32541206115354Q1715.8095171899722 518.6196835243412 1706.1221345470726 523.3931764208425Q1696.4066725341936 528.1385899473643 1678.6324313372213 528.1385899473643ZM1667.7095564152273 510.5328249702685L1667.7095564152273 510.5328249702685Q1675.3752244196087 510.5328249702685 1683.1812892738872 509.4377295410712Q1690.9592747581862 508.3145547418944 1696.827863083885 506.29284010337625L1696.827863083885 506.29284010337625Q1698.4283871727118 499.83458500810985 1699.2426889021149 493.3482505428641Q1700.0569906315181 486.8899954475977 1700.0569906315181 480.62829594218726L1700.0569906315181 480.62829594218726Q1700.0569906315181 461.4220068762646 1691.9701320774454 445.44484535797517L1691.9701320774454 445.44484535797517Q1680.6541459757395 451.31343368367374 1671.9495412821198 461.7308799460382Q1663.2449365884995 472.12024683842327 1658.302967472122 484.5594077393059Q1653.3609983557442 496.9985686401885 1653.3609983557442 509.32541206115354L1653.3609983557442 509.32541206115354Q1659.8192534510106 510.5328249702685 1667.7095564152273 510.5328249702685ZM1778.0895598043235 524.4882718500398L1758.068969008998 526.3134308987021L1747.763840226551 385.18651738214186L1791.0341493648361 378.53170669701956L1783.3404019904751 465.8585473330128L1826.4141555389037 414.9225701903466L1839.9484118689838 425.42425456264937L1808.6118349719522 458.1928793286314L1852.4998902497841 523.6739701206367L1814.0873121179388 526.3134308987021L1788.8158791364617 478.99969248338095L1781.5152429418126 485.8791381283386L1778.0895598043235 524.4882718500398Z " fill="#7fffd4" transform="matrix(0.4723347301442305,0,0,0.4723347301442305,0,85.78121089569339)"/></g></svg>